<svg height="480pt" viewBox="0 0 480.00697 480" width="480pt" xmlns="http://www.w3.org/2000/svg"><path  fill="#d852e8" d="m438.625 400.003906h-88c.90625-2.570312 1.371094-5.273437 1.375-8v-16c-.027344-22.082031-17.917969-39.972656-40-40h-140.6875l-40.96875-40.96875c-4.488281-4.515625-10.597656-7.050781-16.96875-7.03125h-17.375v-8c0-4.417968-3.582031-8-8-8h-80c-4.417969 0-8 3.582032-8 8v192c0 4.417969 3.582031 8 8 8h80c4.417969 0 8-3.582031 8-8v-28.265625l30.222656 31.144531c.394532.40625.828125.773438 1.296875 1.089844 3.945313 2.621094 8.582031 4.015625 13.320313 4h299.160156c11.289062 0 22.054688-4.769531 29.636719-13.128906 7.585937-8.363281 11.28125-19.542969 10.179687-30.777344-2.546875-20.753906-20.28125-36.285156-41.191406-36.0625zm-358.625 64h-64v-176h64zm377.769531-7.863281c-4.554687 5.003906-11.003906 7.859375-17.769531 7.863281h-299.160156c-1.335938 0-2.652344-.335937-3.824219-.976562l-41.015625-42.222656v-116.800782h17.375c2.121094.007813 4.152344.851563 5.65625 2.34375l43.3125 43.3125c1.5 1.5 3.535156 2.34375 5.65625 2.34375h144c13.253906 0 24 10.746094 24 24v16c0 4.417969-3.582031 8-8 8h-112v16h222.625c12.691406-.277344 23.5625 9.019532 25.261719 21.`.699219 6.769532-1.527344 13.515626-6.117188 18.539063zm0 0"/><path fill="#d852e8" d="m176 158.53125v121.472656c0 13.253906 10.746094 24 24 24h208c13.253906 0 24-10.746094 24-24v-121.472656c9.554688-3.378906 15.957031-12.394531 16-22.527344v-64c0-13.253906-10.746094-24-24-24h-64v-24c0-13.253906-10.746094-23.99999975-24-23.99999975h-64c-13.253906 0-24 10.74609375-24 23.99999975v24h-64c-13.253906 0-24 10.746094-24 24v64c.042969 10.132813 6.445312 19.148438 16 22.527344zm240 121.472656c0 4.417969-3.582031 8-8 8h-208c-4.417969 0-8-3.582031-8-8v-120h88v32c0 4.417969 3.582031 8 8 8h32c4.417969 0 8-3.582031 8-8v-32h88zm-120-96v-48h16v48zm-32-160c0-4.417968 3.582031-8 8-8h64c4.417969 0 8 3.582032 8 8v24h-80zm-88 48c0-4.417968 3.582031-8 8-8h240c4.417969 0 8 3.582032 8 8v64c0 4.417969-3.582031 8-8 8h-96v-16c0-4.417968-3.582031-8-8-8h-32c-4.417969 0-8 3.582032-8 8v16h-96c-4.417969 0-8-3.582031-8-8zm0 0"/></svg>